<svg xmlns="http://www.w3.org/2000/svg" viewBox="0 0 120 60" role="img">
  <title>Feeling magnet for Tense</title>
  <desc>Decorative magnet illustration generated for the feeling “Tense”.</desc>
  <defs>
    <linearGradient id="magnet-grad-tense" x1="0" y1="0" x2="120" y2="60" gradientUnits="userSpaceOnUse" gradientTransform="rotate(-27 60 30)">
      <stop offset="0%" stop-color="#F8BBD0" />
      <stop offset="100%" stop-color="#F06292" />
    </linearGradient>
    <linearGradient id="magnet-sheen-tense" x1="24" y1="12" x2="96" y2="12" gradientUnits="userSpaceOnUse">
      <stop offset="0%" stop-color="#FBDAE5" stop-opacity="0.85" />
      <stop offset="100%" stop-color="#FBDAE5" stop-opacity="0" />
    </linearGradient>
  </defs>
  <path d="M18 6h84a12 12 0 0 1 12 12v24a12 12 0 0 1-12 12H18A12 12 0 0 1 6 42V18A12 12 0 0 1 18 6Z" fill="url(#magnet-grad-tense)" stroke="#7A1E4D" stroke-width="4" stroke-linejoin="round" />
  <path d="M22 46c12 8 64 8 76 0" fill="none" stroke="#B44A6E" stroke-width="5" stroke-linecap="round" opacity="0.28" />
  <path d="M24 18c10-6 62-6 72 0" fill="none" stroke="url(#magnet-sheen-tense)" stroke-width="4" stroke-linecap="round" opacity="0.8" />
  <g opacity="0.65">
      <path d="M28 27 l65.00 0.00" stroke="#4E5BA3" stroke-width="4" stroke-linecap="round" />
      <path d="M34 35 l45.50 0.00" stroke="#A5AEDC" stroke-width="2.5" stroke-linecap="round" stroke-dasharray="5 5" />
    </g>
  <path d="M18 26 C 36 20, 84 20, 94 26" fill="none" stroke="#C04E75" stroke-width="3.5" stroke-linecap="round" opacity="0.35" />
</svg>
